<?xml version="1.0" encoding="UTF-8" standalone="no"?>
<svg
   viewBox="0 0 1024 1024"
   version="1.1"
   id="svg16"
   sodipodi:docname="toolkitIcon.svg"
   inkscape:version="1.4 (e7c3feb1, 2024-10-09)"
   xmlns:inkscape="http://www.inkscape.org/namespaces/inkscape"
   xmlns:sodipodi="http://sodipodi.sourceforge.net/DTD/sodipodi-0.dtd"
   xmlns:xlink="http://www.w3.org/1999/xlink"
   xmlns="http://www.w3.org/2000/svg"
   xmlns:svg="http://www.w3.org/2000/svg"
   xmlns:bx="https://boxy-svg.com">
  <sodipodi:namedview
     id="namedview16"
     pagecolor="#ffffff"
     bordercolor="#000000"
     borderopacity="0.25"
     inkscape:showpageshadow="2"
     inkscape:pageopacity="0.0"
     inkscape:pagecheckerboard="0"
     inkscape:deskcolor="#d1d1d1"
     inkscape:zoom="0.74311292"
     inkscape:cx="538.2762"
     inkscape:cy="491.17703"
     inkscape:window-width="1728"
     inkscape:window-height="969"
     inkscape:window-x="0"
     inkscape:window-y="38"
     inkscape:window-maximized="0"
     inkscape:current-layer="svg16" />
  <defs
     id="defs12">
    <linearGradient
       id="linearGradient510"
       inkscape:collect="always">
      <stop
         style="stop-color:#001bf9;stop-opacity:1;"
         offset="0"
         id="stop509" />
      <stop
         style="stop-color:#0000f9;stop-opacity:1;"
         offset="1"
         id="stop510" />
    </linearGradient>
    <linearGradient
       id="linearGradient506"
       inkscape:collect="always">
      <stop
         style="stop-color:#00f9f9;stop-opacity:1;"
         offset="0"
         id="stop505" />
      <stop
         style="stop-color:#001cf9;stop-opacity:0.31623933;"
         offset="1"
         id="stop506" />
    </linearGradient>
    <inkscape:path-effect
       effect="spiro"
       id="path-effect28"
       is_visible="true"
       lpeversion="1" />
    <linearGradient
       id="linearGradient17"
       inkscape:collect="always">
      <stop
         style="stop-color:#00f9f9;stop-opacity:1;"
         offset="0"
         id="stop17" />
      <stop
         style="stop-color:#0059f9;stop-opacity:1;"
         offset="1"
         id="stop18" />
    </linearGradient>
    <filter
       id="shadow"
       bx:pinned="true"
       x="0"
       y="0"
       width="1"
       height="1">
      <title
         id="title1">Drop Shadow</title>
      <feDropShadow
         result="drop-shadow-0"
         in="SourceGraphic"
         style="flood-opacity: 0.3;"
         stdDeviation="10"
         dx="0"
         dy="10" />
    </filter>
    <bx:guide
       x="-10"
       y="100"
       angle="90" />
    <bx:guide
       x="100"
       y="-10"
       angle="0" />
    <bx:guide
       x="924"
       y="-10"
       angle="0" />
    <bx:guide
       x="-10"
       y="924"
       angle="90" />
    <clipPath
       id="clip-0">
      <path
         style="stroke-width: 3px; fill: rgb(255, 255, 255);"
         d="M 100 724 L 100 300 C 100 185.001 170 99.995 300.026 100 L 724 99.995 C 854 100 924 185.001 924 300 L 924 724 C 924 839.001 854 923.995 724 924 L 300.026 924 C 170 924 100 839.001 100 724 Z"
         id="path2">
        <title
           id="title2">Icon Mask</title>
      </path>
    </clipPath>
    <symbol
       id="symbol-0"
       viewBox="0 0 1024 1024"
       bx:pinned="true">
      <title
         id="title3">App Icon Guides</title>
      <g
         style=""
         transform="matrix(1, 0, 0, 1, 0, 0)"
         id="g12">
        <title
           id="title4">App Icon Guides</title>
        <path
           style="fill: none; stroke: rgb(145, 145, 145); stroke-width: 3px;"
           d="M 0 739.001 L 0 285.001 C 0 135.001 112 0 284.999 0 L 739.001 0 C 912 0 1024 135.001 1024 285.001 L 1024 739.001 C 1024 889.001 912 1024 739.001 1024 L 284.999 1024 C 112 1024 0 889.001 0 739.001 Z"
           id="path5">
          <title
             id="title5">Outer Bounding Box</title>
        </path>
        <path
           style="stroke: rgb(145, 145, 145); fill: none; stroke-width: 3px;"
           d="M 50 739.001 L 50 285.001 C 50 162 140 50 284.999 50 L 739.001 50 C 884.001 50 974 162 974 285.001 L 974 739.001 C 974 862 884.001 974 739.001 974 L 284.999 974 C 140 974 50 862 50 739.001 Z"
           id="path6">
          <title
             id="title6">Inner Bounding Box</title>
        </path>
        <path
           style="fill: none; stroke: rgb(255, 0, 0); stroke-width: 3px;"
           d="M 100 724.005 L 100 300.005 C 100 185.006 170 100 300.026 100.005 L 724 100 C 854 100.005 924 185.006 924 300.005 L 924 724.005 C 924 839.006 854 924 724 924.005 L 300.026 924.005 C 170 924.005 100 839.006 100 724.005 Z"
           id="path7">
          <title
             id="title7">Icon Grid Bounding Box</title>
        </path>
        <path
           style="fill: none; stroke: rgb(255, 0, 0);"
           d="M 154.017 870.001 L 870.001 870.001 L 870.001 154.014 L 154.017 154.014 L 154.017 870.001 Z M 154.017 870.001 L 870.001 154.014 L 154.017 870.001 Z M 100 511.995 L 924 511.995 L 100 511.995 Z M 100 669.36 L 924 669.36 L 100 669.36 Z M 924 354.631 L 100 354.631 L 924 354.631 Z M 669.365 99.995 L 669.365 923.995 L 669.365 99.995 Z M 354.635 923.995 L 354.635 99.995 L 354.635 923.995 Z M 512 99.995 L 512 923.995 L 512 99.995 Z M 154.017 154.014 L 870.001 870.001 L 154.017 154.014 Z"
           id="path8">
          <title
             id="title8">Icon Grid</title>
        </path>
        <circle
           style="fill: none; stroke: rgba(255, 0, 0, 0.6);"
           cx="512"
           cy="511.995"
           r="157.397"
           id="circle9">
          <title
             id="title9">Grid Circle 1</title>
        </circle>
        <circle
           style="fill: none; stroke: rgba(255, 0, 0, 0.6);"
           cx="512"
           cy="511.995"
           r="222.577"
           id="circle10">
          <title
             id="title10">Grid Circle 2</title>
        </circle>
        <circle
           style="fill: none; stroke: rgba(255, 0, 0, 0.6);"
           cx="512"
           cy="511.995"
           r="358.001"
           id="circle11">
          <title
             id="title11">Grid Circle 3</title>
        </circle>
        <path
           d="M 1084.343 548.001 L 143.343 548.001 C 114.624 548.001 91.343 524.72 91.343 496.001 C 91.343 467.282 114.624 444.001 143.343 444.001 L 1084.343 444.001 C 1113.062 444.001 1136.343 467.282 1136.343 496.001 C 1136.343 524.72 1113.062 548.001 1084.343 548.001 Z M 1136.3 496.039 L 91.3 495.961"
           style="stroke-width: 5px; fill: rgba(0, 195, 255, 0.37); stroke: rgb(0, 119, 255); stroke-dasharray: 24, 10;"
           transform="matrix(0.430444, -0.902617, 0.902617, 0.430444, -98.093403, 836.54613)"
           id="path12">
          <title
             id="title12">Tool Angle</title>
        </path>
      </g>
    </symbol>
    <linearGradient
       inkscape:collect="always"
       xlink:href="#linearGradient17"
       id="linearGradient18"
       x1="811.89294"
       y1="180.64618"
       x2="180.64618"
       y2="847.41327"
       gradientUnits="userSpaceOnUse" />
    <clipPath
       clipPathUnits="userSpaceOnUse"
       id="clipPath506">
      <rect
         style="fill:url(#linearGradient507);fill-opacity:1;stroke-width:3.92639;stroke-linecap:round;stroke-linejoin:round;paint-order:markers fill stroke"
         id="rect506"
         width="720.40527"
         height="694.42639"
         x="150.92807"
         y="227.45842"
         ry="145.37125" />
    </clipPath>
    <linearGradient
       inkscape:collect="always"
       xlink:href="#linearGradient506"
       id="linearGradient507"
       gradientUnits="userSpaceOnUse"
       gradientTransform="matrix(0.88292892,0,0,0.85348999,56.819606,137.99356)"
       x1="811.89294"
       y1="180.64618"
       x2="180.64618"
       y2="847.41327" />
    <clipPath
       clipPathUnits="userSpaceOnUse"
       id="clipPath510">
      <rect
         style="fill:url(#linearGradient511);fill-opacity:1;stroke-width:4.52305;stroke-linecap:round;stroke-linejoin:round;paint-order:markers fill stroke"
         id="rect510"
         width="815.9267"
         height="813.63159"
         x="105.24834"
         y="102.07626"
         ry="170.32565" />
    </clipPath>
    <linearGradient
       inkscape:collect="always"
       xlink:href="#linearGradient510"
       id="linearGradient511"
       gradientUnits="userSpaceOnUse"
       gradientTransform="translate(-1.338361,-2.7461152)"
       x1="811.89294"
       y1="180.64618"
       x2="180.64618"
       y2="847.41327" />
  </defs>
  <rect
     style="fill:url(#linearGradient18);fill-opacity:1;stroke-width:4.52305;stroke-linecap:round;stroke-linejoin:round;paint-order:markers fill stroke"
     id="rect16"
     width="815.9267"
     height="813.63159"
     x="106.5867"
     y="104.82238"
     ry="170.32565" />
  <g
     id="g505"
     transform="matrix(1.132594,0,0,1.1716599,-64.271325,-161.71658)"
     clip-path="url(#clipPath506)">
    <rect
       style="fill:none;fill-opacity:0.852123;stroke:#ccc7cb;stroke-width:0.86808467;stroke-linecap:square;stroke-linejoin:round;stroke-dasharray:0.86808467,1.73616935;stroke-dashoffset:0;stroke-opacity:0.30559757;paint-order:stroke fill markers"
       id="rect36"
       width="48.867298"
       height="48.867298"
       x="139.70717"
       y="204.06847"
       ry="0"
       inkscape:tile-cx="164.14082"
       inkscape:tile-cy="228.50212"
       inkscape:tile-w="49.999998"
       inkscape:tile-h="49.999998"
       inkscape:tile-x0="139.14082"
       inkscape:tile-y0="203.50212" />
    <use
       x="0"
       y="0"
       inkscape:tiled-clone-of="#rect36"
       xlink:href="#rect36"
       id="use281" />
    <use
       x="0"
       y="0"
       inkscape:tiled-clone-of="#rect36"
       xlink:href="#rect36"
       transform="translate(0,49.999998)"
       id="use282" />
    <use
       x="0"
       y="0"
       inkscape:tiled-clone-of="#rect36"
       xlink:href="#rect36"
       transform="translate(0,99.999996)"
       id="use283" />
    <use
       x="0"
       y="0"
       inkscape:tiled-clone-of="#rect36"
       xlink:href="#rect36"
       transform="translate(0,149.99999)"
       id="use284" />
    <use
       x="0"
       y="0"
       inkscape:tiled-clone-of="#rect36"
       xlink:href="#rect36"
       transform="translate(0,199.99999)"
       id="use285" />
    <use
       x="0"
       y="0"
       inkscape:tiled-clone-of="#rect36"
       xlink:href="#rect36"
       transform="translate(0,249.99999)"
       id="use286" />
    <use
       x="0"
       y="0"
       inkscape:tiled-clone-of="#rect36"
       xlink:href="#rect36"
       transform="translate(0,299.99999)"
       id="use287" />
    <use
       x="0"
       y="0"
       inkscape:tiled-clone-of="#rect36"
       xlink:href="#rect36"
       transform="translate(0,349.99999)"
       id="use288" />
    <use
       x="0"
       y="0"
       inkscape:tiled-clone-of="#rect36"
       xlink:href="#rect36"
       transform="translate(0,399.99998)"
       id="use289" />
    <use
       x="0"
       y="0"
       inkscape:tiled-clone-of="#rect36"
       xlink:href="#rect36"
       transform="translate(0,449.99998)"
       id="use290" />
    <use
       x="0"
       y="0"
       inkscape:tiled-clone-of="#rect36"
       xlink:href="#rect36"
       transform="translate(0,499.99998)"
       id="use291" />
    <use
       x="0"
       y="0"
       inkscape:tiled-clone-of="#rect36"
       xlink:href="#rect36"
       transform="translate(0,549.99998)"
       id="use292" />
    <use
       x="0"
       y="0"
       inkscape:tiled-clone-of="#rect36"
       xlink:href="#rect36"
       transform="translate(0,599.99998)"
       id="use293" />
    <use
       x="0"
       y="0"
       inkscape:tiled-clone-of="#rect36"
       xlink:href="#rect36"
       transform="translate(0,649.99997)"
       id="use294" />
    <use
       x="0"
       y="0"
       inkscape:tiled-clone-of="#rect36"
       xlink:href="#rect36"
       transform="translate(0,699.99997)"
       id="use295" />
    <use
       x="0"
       y="0"
       inkscape:tiled-clone-of="#rect36"
       xlink:href="#rect36"
       transform="translate(49.999998)"
       id="use296" />
    <use
       x="0"
       y="0"
       inkscape:tiled-clone-of="#rect36"
       xlink:href="#rect36"
       transform="translate(49.999998,49.999998)"
       id="use297" />
    <use
       x="0"
       y="0"
       inkscape:tiled-clone-of="#rect36"
       xlink:href="#rect36"
       transform="translate(49.999998,99.999996)"
       id="use298" />
    <use
       x="0"
       y="0"
       inkscape:tiled-clone-of="#rect36"
       xlink:href="#rect36"
       transform="translate(49.999998,149.99999)"
       id="use299" />
    <use
       x="0"
       y="0"
       inkscape:tiled-clone-of="#rect36"
       xlink:href="#rect36"
       transform="translate(49.999998,199.99999)"
       id="use300" />
    <use
       x="0"
       y="0"
       inkscape:tiled-clone-of="#rect36"
       xlink:href="#rect36"
       transform="translate(49.999998,249.99999)"
       id="use301" />
    <use
       x="0"
       y="0"
       inkscape:tiled-clone-of="#rect36"
       xlink:href="#rect36"
       transform="translate(49.999998,299.99999)"
       id="use302" />
    <use
       x="0"
       y="0"
       inkscape:tiled-clone-of="#rect36"
       xlink:href="#rect36"
       transform="translate(49.999998,349.99999)"
       id="use303" />
    <use
       x="0"
       y="0"
       inkscape:tiled-clone-of="#rect36"
       xlink:href="#rect36"
       transform="translate(49.999998,399.99998)"
       id="use304" />
    <use
       x="0"
       y="0"
       inkscape:tiled-clone-of="#rect36"
       xlink:href="#rect36"
       transform="translate(49.999998,449.99998)"
       id="use305" />
    <use
       x="0"
       y="0"
       inkscape:tiled-clone-of="#rect36"
       xlink:href="#rect36"
       transform="translate(49.999998,499.99998)"
       id="use306" />
    <use
       x="0"
       y="0"
       inkscape:tiled-clone-of="#rect36"
       xlink:href="#rect36"
       transform="translate(49.999998,549.99998)"
       id="use307" />
    <use
       x="0"
       y="0"
       inkscape:tiled-clone-of="#rect36"
       xlink:href="#rect36"
       transform="translate(49.999998,599.99998)"
       id="use308" />
    <use
       x="0"
       y="0"
       inkscape:tiled-clone-of="#rect36"
       xlink:href="#rect36"
       transform="translate(49.999998,649.99997)"
       id="use309" />
    <use
       x="0"
       y="0"
       inkscape:tiled-clone-of="#rect36"
       xlink:href="#rect36"
       transform="translate(49.999998,699.99997)"
       id="use310" />
    <use
       x="0"
       y="0"
       inkscape:tiled-clone-of="#rect36"
       xlink:href="#rect36"
       transform="translate(99.999996)"
       id="use311" />
    <use
       x="0"
       y="0"
       inkscape:tiled-clone-of="#rect36"
       xlink:href="#rect36"
       transform="translate(99.999996,49.999998)"
       id="use312" />
    <use
       x="0"
       y="0"
       inkscape:tiled-clone-of="#rect36"
       xlink:href="#rect36"
       transform="translate(99.999996,99.999996)"
       id="use313" />
    <use
       x="0"
       y="0"
       inkscape:tiled-clone-of="#rect36"
       xlink:href="#rect36"
       transform="translate(99.999996,149.99999)"
       id="use314" />
    <use
       x="0"
       y="0"
       inkscape:tiled-clone-of="#rect36"
       xlink:href="#rect36"
       transform="translate(99.999996,199.99999)"
       id="use315" />
    <use
       x="0"
       y="0"
       inkscape:tiled-clone-of="#rect36"
       xlink:href="#rect36"
       transform="translate(99.999996,249.99999)"
       id="use316" />
    <use
       x="0"
       y="0"
       inkscape:tiled-clone-of="#rect36"
       xlink:href="#rect36"
       transform="translate(99.999996,299.99999)"
       id="use317" />
    <use
       x="0"
       y="0"
       inkscape:tiled-clone-of="#rect36"
       xlink:href="#rect36"
       transform="translate(99.999996,349.99999)"
       id="use318" />
    <use
       x="0"
       y="0"
       inkscape:tiled-clone-of="#rect36"
       xlink:href="#rect36"
       transform="translate(99.999996,399.99998)"
       id="use319" />
    <use
       x="0"
       y="0"
       inkscape:tiled-clone-of="#rect36"
       xlink:href="#rect36"
       transform="translate(99.999996,449.99998)"
       id="use320" />
    <use
       x="0"
       y="0"
       inkscape:tiled-clone-of="#rect36"
       xlink:href="#rect36"
       transform="translate(99.999996,499.99998)"
       id="use321" />
    <use
       x="0"
       y="0"
       inkscape:tiled-clone-of="#rect36"
       xlink:href="#rect36"
       transform="translate(99.999996,549.99998)"
       id="use322" />
    <use
       x="0"
       y="0"
       inkscape:tiled-clone-of="#rect36"
       xlink:href="#rect36"
       transform="translate(99.999996,599.99998)"
       id="use323" />
    <use
       x="0"
       y="0"
       inkscape:tiled-clone-of="#rect36"
       xlink:href="#rect36"
       transform="translate(99.999996,649.99997)"
       id="use324" />
    <use
       x="0"
       y="0"
       inkscape:tiled-clone-of="#rect36"
       xlink:href="#rect36"
       transform="translate(99.999996,699.99997)"
       id="use325" />
    <use
       x="0"
       y="0"
       inkscape:tiled-clone-of="#rect36"
       xlink:href="#rect36"
       transform="translate(149.99999)"
       id="use326" />
    <use
       x="0"
       y="0"
       inkscape:tiled-clone-of="#rect36"
       xlink:href="#rect36"
       transform="translate(149.99999,49.999998)"
       id="use327" />
    <use
       x="0"
       y="0"
       inkscape:tiled-clone-of="#rect36"
       xlink:href="#rect36"
       transform="translate(149.99999,99.999996)"
       id="use328" />
    <use
       x="0"
       y="0"
       inkscape:tiled-clone-of="#rect36"
       xlink:href="#rect36"
       transform="translate(149.99999,149.99999)"
       id="use329" />
    <use
       x="0"
       y="0"
       inkscape:tiled-clone-of="#rect36"
       xlink:href="#rect36"
       transform="translate(149.99999,199.99999)"
       id="use330" />
    <use
       x="0"
       y="0"
       inkscape:tiled-clone-of="#rect36"
       xlink:href="#rect36"
       transform="translate(149.99999,249.99999)"
       id="use331" />
    <use
       x="0"
       y="0"
       inkscape:tiled-clone-of="#rect36"
       xlink:href="#rect36"
       transform="translate(149.99999,299.99999)"
       id="use332" />
    <use
       x="0"
       y="0"
       inkscape:tiled-clone-of="#rect36"
       xlink:href="#rect36"
       transform="translate(149.99999,349.99999)"
       id="use333" />
    <use
       x="0"
       y="0"
       inkscape:tiled-clone-of="#rect36"
       xlink:href="#rect36"
       transform="translate(149.99999,399.99998)"
       id="use334" />
    <use
       x="0"
       y="0"
       inkscape:tiled-clone-of="#rect36"
       xlink:href="#rect36"
       transform="translate(149.99999,449.99998)"
       id="use335" />
    <use
       x="0"
       y="0"
       inkscape:tiled-clone-of="#rect36"
       xlink:href="#rect36"
       transform="translate(149.99999,499.99998)"
       id="use336" />
    <use
       x="0"
       y="0"
       inkscape:tiled-clone-of="#rect36"
       xlink:href="#rect36"
       transform="translate(149.99999,549.99998)"
       id="use337" />
    <use
       x="0"
       y="0"
       inkscape:tiled-clone-of="#rect36"
       xlink:href="#rect36"
       transform="translate(149.99999,599.99998)"
       id="use338" />
    <use
       x="0"
       y="0"
       inkscape:tiled-clone-of="#rect36"
       xlink:href="#rect36"
       transform="translate(149.99999,649.99997)"
       id="use339" />
    <use
       x="0"
       y="0"
       inkscape:tiled-clone-of="#rect36"
       xlink:href="#rect36"
       transform="translate(149.99999,699.99997)"
       id="use340" />
    <use
       x="0"
       y="0"
       inkscape:tiled-clone-of="#rect36"
       xlink:href="#rect36"
       transform="translate(199.99999)"
       id="use341" />
    <use
       x="0"
       y="0"
       inkscape:tiled-clone-of="#rect36"
       xlink:href="#rect36"
       transform="translate(199.99999,49.999998)"
       id="use342" />
    <use
       x="0"
       y="0"
       inkscape:tiled-clone-of="#rect36"
       xlink:href="#rect36"
       transform="translate(199.99999,99.999996)"
       id="use343" />
    <use
       x="0"
       y="0"
       inkscape:tiled-clone-of="#rect36"
       xlink:href="#rect36"
       transform="translate(199.99999,149.99999)"
       id="use344" />
    <use
       x="0"
       y="0"
       inkscape:tiled-clone-of="#rect36"
       xlink:href="#rect36"
       transform="translate(199.99999,199.99999)"
       id="use345" />
    <use
       x="0"
       y="0"
       inkscape:tiled-clone-of="#rect36"
       xlink:href="#rect36"
       transform="translate(199.99999,249.99999)"
       id="use346" />
    <use
       x="0"
       y="0"
       inkscape:tiled-clone-of="#rect36"
       xlink:href="#rect36"
       transform="translate(199.99999,299.99999)"
       id="use347" />
    <use
       x="0"
       y="0"
       inkscape:tiled-clone-of="#rect36"
       xlink:href="#rect36"
       transform="translate(199.99999,349.99999)"
       id="use348" />
    <use
       x="0"
       y="0"
       inkscape:tiled-clone-of="#rect36"
       xlink:href="#rect36"
       transform="translate(199.99999,399.99998)"
       id="use349" />
    <use
       x="0"
       y="0"
       inkscape:tiled-clone-of="#rect36"
       xlink:href="#rect36"
       transform="translate(199.99999,449.99998)"
       id="use350" />
    <use
       x="0"
       y="0"
       inkscape:tiled-clone-of="#rect36"
       xlink:href="#rect36"
       transform="translate(199.99999,499.99998)"
       id="use351" />
    <use
       x="0"
       y="0"
       inkscape:tiled-clone-of="#rect36"
       xlink:href="#rect36"
       transform="translate(199.99999,549.99998)"
       id="use352" />
    <use
       x="0"
       y="0"
       inkscape:tiled-clone-of="#rect36"
       xlink:href="#rect36"
       transform="translate(199.99999,599.99998)"
       id="use353" />
    <use
       x="0"
       y="0"
       inkscape:tiled-clone-of="#rect36"
       xlink:href="#rect36"
       transform="translate(199.99999,649.99997)"
       id="use354" />
    <use
       x="0"
       y="0"
       inkscape:tiled-clone-of="#rect36"
       xlink:href="#rect36"
       transform="translate(199.99999,699.99997)"
       id="use355" />
    <use
       x="0"
       y="0"
       inkscape:tiled-clone-of="#rect36"
       xlink:href="#rect36"
       transform="translate(249.99999)"
       id="use356" />
    <use
       x="0"
       y="0"
       inkscape:tiled-clone-of="#rect36"
       xlink:href="#rect36"
       transform="translate(249.99999,49.999998)"
       id="use357" />
    <use
       x="0"
       y="0"
       inkscape:tiled-clone-of="#rect36"
       xlink:href="#rect36"
       transform="translate(249.99999,99.999996)"
       id="use358" />
    <use
       x="0"
       y="0"
       inkscape:tiled-clone-of="#rect36"
       xlink:href="#rect36"
       transform="translate(249.99999,149.99999)"
       id="use359" />
    <use
       x="0"
       y="0"
       inkscape:tiled-clone-of="#rect36"
       xlink:href="#rect36"
       transform="translate(249.99999,199.99999)"
       id="use360" />
    <use
       x="0"
       y="0"
       inkscape:tiled-clone-of="#rect36"
       xlink:href="#rect36"
       transform="translate(249.99999,249.99999)"
       id="use361" />
    <use
       x="0"
       y="0"
       inkscape:tiled-clone-of="#rect36"
       xlink:href="#rect36"
       transform="translate(249.99999,299.99999)"
       id="use362" />
    <use
       x="0"
       y="0"
       inkscape:tiled-clone-of="#rect36"
       xlink:href="#rect36"
       transform="translate(249.99999,349.99999)"
       id="use363" />
    <use
       x="0"
       y="0"
       inkscape:tiled-clone-of="#rect36"
       xlink:href="#rect36"
       transform="translate(249.99999,399.99998)"
       id="use364" />
    <use
       x="0"
       y="0"
       inkscape:tiled-clone-of="#rect36"
       xlink:href="#rect36"
       transform="translate(249.99999,449.99998)"
       id="use365" />
    <use
       x="0"
       y="0"
       inkscape:tiled-clone-of="#rect36"
       xlink:href="#rect36"
       transform="translate(249.99999,499.99998)"
       id="use366" />
    <use
       x="0"
       y="0"
       inkscape:tiled-clone-of="#rect36"
       xlink:href="#rect36"
       transform="translate(249.99999,549.99998)"
       id="use367" />
    <use
       x="0"
       y="0"
       inkscape:tiled-clone-of="#rect36"
       xlink:href="#rect36"
       transform="translate(249.99999,599.99998)"
       id="use368" />
    <use
       x="0"
       y="0"
       inkscape:tiled-clone-of="#rect36"
       xlink:href="#rect36"
       transform="translate(249.99999,649.99997)"
       id="use369" />
    <use
       x="0"
       y="0"
       inkscape:tiled-clone-of="#rect36"
       xlink:href="#rect36"
       transform="translate(249.99999,699.99997)"
       id="use370" />
    <use
       x="0"
       y="0"
       inkscape:tiled-clone-of="#rect36"
       xlink:href="#rect36"
       transform="translate(299.99999)"
       id="use371" />
    <use
       x="0"
       y="0"
       inkscape:tiled-clone-of="#rect36"
       xlink:href="#rect36"
       transform="translate(299.99999,49.999998)"
       id="use372" />
    <use
       x="0"
       y="0"
       inkscape:tiled-clone-of="#rect36"
       xlink:href="#rect36"
       transform="translate(299.99999,99.999996)"
       id="use373" />
    <use
       x="0"
       y="0"
       inkscape:tiled-clone-of="#rect36"
       xlink:href="#rect36"
       transform="translate(299.99999,149.99999)"
       id="use374" />
    <use
       x="0"
       y="0"
       inkscape:tiled-clone-of="#rect36"
       xlink:href="#rect36"
       transform="translate(299.99999,199.99999)"
       id="use375" />
    <use
       x="0"
       y="0"
       inkscape:tiled-clone-of="#rect36"
       xlink:href="#rect36"
       transform="translate(299.99999,249.99999)"
       id="use376" />
    <use
       x="0"
       y="0"
       inkscape:tiled-clone-of="#rect36"
       xlink:href="#rect36"
       transform="translate(299.99999,299.99999)"
       id="use377" />
    <use
       x="0"
       y="0"
       inkscape:tiled-clone-of="#rect36"
       xlink:href="#rect36"
       transform="translate(299.99999,349.99999)"
       id="use378" />
    <use
       x="0"
       y="0"
       inkscape:tiled-clone-of="#rect36"
       xlink:href="#rect36"
       transform="translate(299.99999,399.99998)"
       id="use379" />
    <use
       x="0"
       y="0"
       inkscape:tiled-clone-of="#rect36"
       xlink:href="#rect36"
       transform="translate(299.99999,449.99998)"
       id="use380" />
    <use
       x="0"
       y="0"
       inkscape:tiled-clone-of="#rect36"
       xlink:href="#rect36"
       transform="translate(299.99999,499.99998)"
       id="use381" />
    <use
       x="0"
       y="0"
       inkscape:tiled-clone-of="#rect36"
       xlink:href="#rect36"
       transform="translate(299.99999,549.99998)"
       id="use382" />
    <use
       x="0"
       y="0"
       inkscape:tiled-clone-of="#rect36"
       xlink:href="#rect36"
       transform="translate(299.99999,599.99998)"
       id="use383" />
    <use
       x="0"
       y="0"
       inkscape:tiled-clone-of="#rect36"
       xlink:href="#rect36"
       transform="translate(299.99999,649.99997)"
       id="use384" />
    <use
       x="0"
       y="0"
       inkscape:tiled-clone-of="#rect36"
       xlink:href="#rect36"
       transform="translate(299.99999,699.99997)"
       id="use385" />
    <use
       x="0"
       y="0"
       inkscape:tiled-clone-of="#rect36"
       xlink:href="#rect36"
       transform="translate(349.99999)"
       id="use386" />
    <use
       x="0"
       y="0"
       inkscape:tiled-clone-of="#rect36"
       xlink:href="#rect36"
       transform="translate(349.99999,49.999998)"
       id="use387" />
    <use
       x="0"
       y="0"
       inkscape:tiled-clone-of="#rect36"
       xlink:href="#rect36"
       transform="translate(349.99999,99.999996)"
       id="use388" />
    <use
       x="0"
       y="0"
       inkscape:tiled-clone-of="#rect36"
       xlink:href="#rect36"
       transform="translate(349.99999,149.99999)"
       id="use389" />
    <use
       x="0"
       y="0"
       inkscape:tiled-clone-of="#rect36"
       xlink:href="#rect36"
       transform="translate(349.99999,199.99999)"
       id="use390" />
    <use
       x="0"
       y="0"
       inkscape:tiled-clone-of="#rect36"
       xlink:href="#rect36"
       transform="translate(349.99999,249.99999)"
       id="use391" />
    <use
       x="0"
       y="0"
       inkscape:tiled-clone-of="#rect36"
       xlink:href="#rect36"
       transform="translate(349.99999,299.99999)"
       id="use392" />
    <use
       x="0"
       y="0"
       inkscape:tiled-clone-of="#rect36"
       xlink:href="#rect36"
       transform="translate(349.99999,349.99999)"
       id="use393" />
    <use
       x="0"
       y="0"
       inkscape:tiled-clone-of="#rect36"
       xlink:href="#rect36"
       transform="translate(349.99999,399.99998)"
       id="use394" />
    <use
       x="0"
       y="0"
       inkscape:tiled-clone-of="#rect36"
       xlink:href="#rect36"
       transform="translate(349.99999,449.99998)"
       id="use395" />
    <use
       x="0"
       y="0"
       inkscape:tiled-clone-of="#rect36"
       xlink:href="#rect36"
       transform="translate(349.99999,499.99998)"
       id="use396" />
    <use
       x="0"
       y="0"
       inkscape:tiled-clone-of="#rect36"
       xlink:href="#rect36"
       transform="translate(349.99999,549.99998)"
       id="use397" />
    <use
       x="0"
       y="0"
       inkscape:tiled-clone-of="#rect36"
       xlink:href="#rect36"
       transform="translate(349.99999,599.99998)"
       id="use398" />
    <use
       x="0"
       y="0"
       inkscape:tiled-clone-of="#rect36"
       xlink:href="#rect36"
       transform="translate(349.99999,649.99997)"
       id="use399" />
    <use
       x="0"
       y="0"
       inkscape:tiled-clone-of="#rect36"
       xlink:href="#rect36"
       transform="translate(349.99999,699.99997)"
       id="use400" />
    <use
       x="0"
       y="0"
       inkscape:tiled-clone-of="#rect36"
       xlink:href="#rect36"
       transform="translate(399.99998)"
       id="use401" />
    <use
       x="0"
       y="0"
       inkscape:tiled-clone-of="#rect36"
       xlink:href="#rect36"
       transform="translate(399.99998,49.999998)"
       id="use402" />
    <use
       x="0"
       y="0"
       inkscape:tiled-clone-of="#rect36"
       xlink:href="#rect36"
       transform="translate(399.99998,99.999996)"
       id="use403" />
    <use
       x="0"
       y="0"
       inkscape:tiled-clone-of="#rect36"
       xlink:href="#rect36"
       transform="translate(399.99998,149.99999)"
       id="use404" />
    <use
       x="0"
       y="0"
       inkscape:tiled-clone-of="#rect36"
       xlink:href="#rect36"
       transform="translate(399.99998,199.99999)"
       id="use405" />
    <use
       x="0"
       y="0"
       inkscape:tiled-clone-of="#rect36"
       xlink:href="#rect36"
       transform="translate(399.99998,249.99999)"
       id="use406" />
    <use
       x="0"
       y="0"
       inkscape:tiled-clone-of="#rect36"
       xlink:href="#rect36"
       transform="translate(399.99998,299.99999)"
       id="use407" />
    <use
       x="0"
       y="0"
       inkscape:tiled-clone-of="#rect36"
       xlink:href="#rect36"
       transform="translate(399.99998,349.99999)"
       id="use408" />
    <use
       x="0"
       y="0"
       inkscape:tiled-clone-of="#rect36"
       xlink:href="#rect36"
       transform="translate(399.99998,399.99998)"
       id="use409" />
    <use
       x="0"
       y="0"
       inkscape:tiled-clone-of="#rect36"
       xlink:href="#rect36"
       transform="translate(399.99998,449.99998)"
       id="use410" />
    <use
       x="0"
       y="0"
       inkscape:tiled-clone-of="#rect36"
       xlink:href="#rect36"
       transform="translate(399.99998,499.99998)"
       id="use411" />
    <use
       x="0"
       y="0"
       inkscape:tiled-clone-of="#rect36"
       xlink:href="#rect36"
       transform="translate(399.99998,549.99998)"
       id="use412" />
    <use
       x="0"
       y="0"
       inkscape:tiled-clone-of="#rect36"
       xlink:href="#rect36"
       transform="translate(399.99998,599.99998)"
       id="use413" />
    <use
       x="0"
       y="0"
       inkscape:tiled-clone-of="#rect36"
       xlink:href="#rect36"
       transform="translate(399.99998,649.99997)"
       id="use414" />
    <use
       x="0"
       y="0"
       inkscape:tiled-clone-of="#rect36"
       xlink:href="#rect36"
       transform="translate(399.99998,699.99997)"
       id="use415" />
    <use
       x="0"
       y="0"
       inkscape:tiled-clone-of="#rect36"
       xlink:href="#rect36"
       transform="translate(449.99998)"
       id="use416" />
    <use
       x="0"
       y="0"
       inkscape:tiled-clone-of="#rect36"
       xlink:href="#rect36"
       transform="translate(449.99998,49.999998)"
       id="use417" />
    <use
       x="0"
       y="0"
       inkscape:tiled-clone-of="#rect36"
       xlink:href="#rect36"
       transform="translate(449.99998,99.999996)"
       id="use418" />
    <use
       x="0"
       y="0"
       inkscape:tiled-clone-of="#rect36"
       xlink:href="#rect36"
       transform="translate(449.99998,149.99999)"
       id="use419" />
    <use
       x="0"
       y="0"
       inkscape:tiled-clone-of="#rect36"
       xlink:href="#rect36"
       transform="translate(449.99998,199.99999)"
       id="use420" />
    <use
       x="0"
       y="0"
       inkscape:tiled-clone-of="#rect36"
       xlink:href="#rect36"
       transform="translate(449.99998,249.99999)"
       id="use421" />
    <use
       x="0"
       y="0"
       inkscape:tiled-clone-of="#rect36"
       xlink:href="#rect36"
       transform="translate(449.99998,299.99999)"
       id="use422" />
    <use
       x="0"
       y="0"
       inkscape:tiled-clone-of="#rect36"
       xlink:href="#rect36"
       transform="translate(449.99998,349.99999)"
       id="use423" />
    <use
       x="0"
       y="0"
       inkscape:tiled-clone-of="#rect36"
       xlink:href="#rect36"
       transform="translate(449.99998,399.99998)"
       id="use424" />
    <use
       x="0"
       y="0"
       inkscape:tiled-clone-of="#rect36"
       xlink:href="#rect36"
       transform="translate(449.99998,449.99998)"
       id="use425" />
    <use
       x="0"
       y="0"
       inkscape:tiled-clone-of="#rect36"
       xlink:href="#rect36"
       transform="translate(449.99998,499.99998)"
       id="use426" />
    <use
       x="0"
       y="0"
       inkscape:tiled-clone-of="#rect36"
       xlink:href="#rect36"
       transform="translate(449.99998,549.99998)"
       id="use427" />
    <use
       x="0"
       y="0"
       inkscape:tiled-clone-of="#rect36"
       xlink:href="#rect36"
       transform="translate(449.99998,599.99998)"
       id="use428" />
    <use
       x="0"
       y="0"
       inkscape:tiled-clone-of="#rect36"
       xlink:href="#rect36"
       transform="translate(449.99998,649.99997)"
       id="use429" />
    <use
       x="0"
       y="0"
       inkscape:tiled-clone-of="#rect36"
       xlink:href="#rect36"
       transform="translate(449.99998,699.99997)"
       id="use430" />
    <use
       x="0"
       y="0"
       inkscape:tiled-clone-of="#rect36"
       xlink:href="#rect36"
       transform="translate(499.99998)"
       id="use431" />
    <use
       x="0"
       y="0"
       inkscape:tiled-clone-of="#rect36"
       xlink:href="#rect36"
       transform="translate(499.99998,49.999998)"
       id="use432" />
    <use
       x="0"
       y="0"
       inkscape:tiled-clone-of="#rect36"
       xlink:href="#rect36"
       transform="translate(499.99998,99.999996)"
       id="use433" />
    <use
       x="0"
       y="0"
       inkscape:tiled-clone-of="#rect36"
       xlink:href="#rect36"
       transform="translate(499.99998,149.99999)"
       id="use434" />
    <use
       x="0"
       y="0"
       inkscape:tiled-clone-of="#rect36"
       xlink:href="#rect36"
       transform="translate(499.99998,199.99999)"
       id="use435" />
    <use
       x="0"
       y="0"
       inkscape:tiled-clone-of="#rect36"
       xlink:href="#rect36"
       transform="translate(499.99998,249.99999)"
       id="use436" />
    <use
       x="0"
       y="0"
       inkscape:tiled-clone-of="#rect36"
       xlink:href="#rect36"
       transform="translate(499.99998,299.99999)"
       id="use437" />
    <use
       x="0"
       y="0"
       inkscape:tiled-clone-of="#rect36"
       xlink:href="#rect36"
       transform="translate(499.99998,349.99999)"
       id="use438" />
    <use
       x="0"
       y="0"
       inkscape:tiled-clone-of="#rect36"
       xlink:href="#rect36"
       transform="translate(499.99998,399.99998)"
       id="use439" />
    <use
       x="0"
       y="0"
       inkscape:tiled-clone-of="#rect36"
       xlink:href="#rect36"
       transform="translate(499.99998,449.99998)"
       id="use440" />
    <use
       x="0"
       y="0"
       inkscape:tiled-clone-of="#rect36"
       xlink:href="#rect36"
       transform="translate(499.99998,499.99998)"
       id="use441" />
    <use
       x="0"
       y="0"
       inkscape:tiled-clone-of="#rect36"
       xlink:href="#rect36"
       transform="translate(499.99998,549.99998)"
       id="use442" />
    <use
       x="0"
       y="0"
       inkscape:tiled-clone-of="#rect36"
       xlink:href="#rect36"
       transform="translate(499.99998,599.99998)"
       id="use443" />
    <use
       x="0"
       y="0"
       inkscape:tiled-clone-of="#rect36"
       xlink:href="#rect36"
       transform="translate(499.99998,649.99997)"
       id="use444" />
    <use
       x="0"
       y="0"
       inkscape:tiled-clone-of="#rect36"
       xlink:href="#rect36"
       transform="translate(499.99998,699.99997)"
       id="use445" />
    <use
       x="0"
       y="0"
       inkscape:tiled-clone-of="#rect36"
       xlink:href="#rect36"
       transform="translate(549.99998)"
       id="use446" />
    <use
       x="0"
       y="0"
       inkscape:tiled-clone-of="#rect36"
       xlink:href="#rect36"
       transform="translate(549.99998,49.999998)"
       id="use447" />
    <use
       x="0"
       y="0"
       inkscape:tiled-clone-of="#rect36"
       xlink:href="#rect36"
       transform="translate(549.99998,99.999996)"
       id="use448" />
    <use
       x="0"
       y="0"
       inkscape:tiled-clone-of="#rect36"
       xlink:href="#rect36"
       transform="translate(549.99998,149.99999)"
       id="use449" />
    <use
       x="0"
       y="0"
       inkscape:tiled-clone-of="#rect36"
       xlink:href="#rect36"
       transform="translate(549.99998,199.99999)"
       id="use450" />
    <use
       x="0"
       y="0"
       inkscape:tiled-clone-of="#rect36"
       xlink:href="#rect36"
       transform="translate(549.99998,249.99999)"
       id="use451" />
    <use
       x="0"
       y="0"
       inkscape:tiled-clone-of="#rect36"
       xlink:href="#rect36"
       transform="translate(549.99998,299.99999)"
       id="use452" />
    <use
       x="0"
       y="0"
       inkscape:tiled-clone-of="#rect36"
       xlink:href="#rect36"
       transform="translate(549.99998,349.99999)"
       id="use453" />
    <use
       x="0"
       y="0"
       inkscape:tiled-clone-of="#rect36"
       xlink:href="#rect36"
       transform="translate(549.99998,399.99998)"
       id="use454" />
    <use
       x="0"
       y="0"
       inkscape:tiled-clone-of="#rect36"
       xlink:href="#rect36"
       transform="translate(549.99998,449.99998)"
       id="use455" />
    <use
       x="0"
       y="0"
       inkscape:tiled-clone-of="#rect36"
       xlink:href="#rect36"
       transform="translate(549.99998,499.99998)"
       id="use456" />
    <use
       x="0"
       y="0"
       inkscape:tiled-clone-of="#rect36"
       xlink:href="#rect36"
       transform="translate(549.99998,549.99998)"
       id="use457" />
    <use
       x="0"
       y="0"
       inkscape:tiled-clone-of="#rect36"
       xlink:href="#rect36"
       transform="translate(549.99998,599.99998)"
       id="use458" />
    <use
       x="0"
       y="0"
       inkscape:tiled-clone-of="#rect36"
       xlink:href="#rect36"
       transform="translate(549.99998,649.99997)"
       id="use459" />
    <use
       x="0"
       y="0"
       inkscape:tiled-clone-of="#rect36"
       xlink:href="#rect36"
       transform="translate(549.99998,699.99997)"
       id="use460" />
    <use
       x="0"
       y="0"
       inkscape:tiled-clone-of="#rect36"
       xlink:href="#rect36"
       transform="translate(599.99998)"
       id="use461" />
    <use
       x="0"
       y="0"
       inkscape:tiled-clone-of="#rect36"
       xlink:href="#rect36"
       transform="translate(599.99998,49.999998)"
       id="use462" />
    <use
       x="0"
       y="0"
       inkscape:tiled-clone-of="#rect36"
       xlink:href="#rect36"
       transform="translate(599.99998,99.999996)"
       id="use463" />
    <use
       x="0"
       y="0"
       inkscape:tiled-clone-of="#rect36"
       xlink:href="#rect36"
       transform="translate(599.99998,149.99999)"
       id="use464" />
    <use
       x="0"
       y="0"
       inkscape:tiled-clone-of="#rect36"
       xlink:href="#rect36"
       transform="translate(599.99998,199.99999)"
       id="use465" />
    <use
       x="0"
       y="0"
       inkscape:tiled-clone-of="#rect36"
       xlink:href="#rect36"
       transform="translate(599.99998,249.99999)"
       id="use466" />
    <use
       x="0"
       y="0"
       inkscape:tiled-clone-of="#rect36"
       xlink:href="#rect36"
       transform="translate(599.99998,299.99999)"
       id="use467" />
    <use
       x="0"
       y="0"
       inkscape:tiled-clone-of="#rect36"
       xlink:href="#rect36"
       transform="translate(599.99998,349.99999)"
       id="use468" />
    <use
       x="0"
       y="0"
       inkscape:tiled-clone-of="#rect36"
       xlink:href="#rect36"
       transform="translate(599.99998,399.99998)"
       id="use469" />
    <use
       x="0"
       y="0"
       inkscape:tiled-clone-of="#rect36"
       xlink:href="#rect36"
       transform="translate(599.99998,449.99998)"
       id="use470" />
    <use
       x="0"
       y="0"
       inkscape:tiled-clone-of="#rect36"
       xlink:href="#rect36"
       transform="translate(599.99998,499.99998)"
       id="use471" />
    <use
       x="0"
       y="0"
       inkscape:tiled-clone-of="#rect36"
       xlink:href="#rect36"
       transform="translate(599.99998,549.99998)"
       id="use472" />
    <use
       x="0"
       y="0"
       inkscape:tiled-clone-of="#rect36"
       xlink:href="#rect36"
       transform="translate(599.99998,599.99998)"
       id="use473" />
    <use
       x="0"
       y="0"
       inkscape:tiled-clone-of="#rect36"
       xlink:href="#rect36"
       transform="translate(599.99998,649.99997)"
       id="use474" />
    <use
       x="0"
       y="0"
       inkscape:tiled-clone-of="#rect36"
       xlink:href="#rect36"
       transform="translate(599.99998,699.99997)"
       id="use475" />
    <use
       x="0"
       y="0"
       inkscape:tiled-clone-of="#rect36"
       xlink:href="#rect36"
       transform="translate(649.99997)"
       id="use476" />
    <use
       x="0"
       y="0"
       inkscape:tiled-clone-of="#rect36"
       xlink:href="#rect36"
       transform="translate(649.99997,49.999998)"
       id="use477" />
    <use
       x="0"
       y="0"
       inkscape:tiled-clone-of="#rect36"
       xlink:href="#rect36"
       transform="translate(649.99997,99.999996)"
       id="use478" />
    <use
       x="0"
       y="0"
       inkscape:tiled-clone-of="#rect36"
       xlink:href="#rect36"
       transform="translate(649.99997,149.99999)"
       id="use479" />
    <use
       x="0"
       y="0"
       inkscape:tiled-clone-of="#rect36"
       xlink:href="#rect36"
       transform="translate(649.99997,199.99999)"
       id="use480" />
    <use
       x="0"
       y="0"
       inkscape:tiled-clone-of="#rect36"
       xlink:href="#rect36"
       transform="translate(649.99997,249.99999)"
       id="use481" />
    <use
       x="0"
       y="0"
       inkscape:tiled-clone-of="#rect36"
       xlink:href="#rect36"
       transform="translate(649.99997,299.99999)"
       id="use482" />
    <use
       x="0"
       y="0"
       inkscape:tiled-clone-of="#rect36"
       xlink:href="#rect36"
       transform="translate(649.99997,349.99999)"
       id="use483" />
    <use
       x="0"
       y="0"
       inkscape:tiled-clone-of="#rect36"
       xlink:href="#rect36"
       transform="translate(649.99997,399.99998)"
       id="use484" />
    <use
       x="0"
       y="0"
       inkscape:tiled-clone-of="#rect36"
       xlink:href="#rect36"
       transform="translate(649.99997,449.99998)"
       id="use485" />
    <use
       x="0"
       y="0"
       inkscape:tiled-clone-of="#rect36"
       xlink:href="#rect36"
       transform="translate(649.99997,499.99998)"
       id="use486" />
    <use
       x="0"
       y="0"
       inkscape:tiled-clone-of="#rect36"
       xlink:href="#rect36"
       transform="translate(649.99997,549.99998)"
       id="use487" />
    <use
       x="0"
       y="0"
       inkscape:tiled-clone-of="#rect36"
       xlink:href="#rect36"
       transform="translate(649.99997,599.99998)"
       id="use488" />
    <use
       x="0"
       y="0"
       inkscape:tiled-clone-of="#rect36"
       xlink:href="#rect36"
       transform="translate(649.99997,649.99997)"
       id="use489" />
    <use
       x="0"
       y="0"
       inkscape:tiled-clone-of="#rect36"
       xlink:href="#rect36"
       transform="translate(649.99997,699.99997)"
       id="use490" />
    <use
       x="0"
       y="0"
       inkscape:tiled-clone-of="#rect36"
       xlink:href="#rect36"
       transform="translate(699.99997)"
       id="use491" />
    <use
       x="0"
       y="0"
       inkscape:tiled-clone-of="#rect36"
       xlink:href="#rect36"
       transform="translate(699.99997,49.999998)"
       id="use492" />
    <use
       x="0"
       y="0"
       inkscape:tiled-clone-of="#rect36"
       xlink:href="#rect36"
       transform="translate(699.99997,99.999996)"
       id="use493" />
    <use
       x="0"
       y="0"
       inkscape:tiled-clone-of="#rect36"
       xlink:href="#rect36"
       transform="translate(699.99997,149.99999)"
       id="use494" />
    <use
       x="0"
       y="0"
       inkscape:tiled-clone-of="#rect36"
       xlink:href="#rect36"
       transform="translate(699.99997,199.99999)"
       id="use495" />
    <use
       x="0"
       y="0"
       inkscape:tiled-clone-of="#rect36"
       xlink:href="#rect36"
       transform="translate(699.99997,249.99999)"
       id="use496" />
    <use
       x="0"
       y="0"
       inkscape:tiled-clone-of="#rect36"
       xlink:href="#rect36"
       transform="translate(699.99997,299.99999)"
       id="use497" />
    <use
       x="0"
       y="0"
       inkscape:tiled-clone-of="#rect36"
       xlink:href="#rect36"
       transform="translate(699.99997,349.99999)"
       id="use498" />
    <use
       x="0"
       y="0"
       inkscape:tiled-clone-of="#rect36"
       xlink:href="#rect36"
       transform="translate(699.99997,399.99998)"
       id="use499" />
    <use
       x="0"
       y="0"
       inkscape:tiled-clone-of="#rect36"
       xlink:href="#rect36"
       transform="translate(699.99997,449.99998)"
       id="use500" />
    <use
       x="0"
       y="0"
       inkscape:tiled-clone-of="#rect36"
       xlink:href="#rect36"
       transform="translate(699.99997,499.99998)"
       id="use501" />
    <use
       x="0"
       y="0"
       inkscape:tiled-clone-of="#rect36"
       xlink:href="#rect36"
       transform="translate(699.99997,549.99998)"
       id="use502" />
    <use
       x="0"
       y="0"
       inkscape:tiled-clone-of="#rect36"
       xlink:href="#rect36"
       transform="translate(699.99997,599.99998)"
       id="use503" />
    <use
       x="0"
       y="0"
       inkscape:tiled-clone-of="#rect36"
       xlink:href="#rect36"
       transform="translate(699.99997,649.99997)"
       id="use504" />
    <use
       x="0"
       y="0"
       inkscape:tiled-clone-of="#rect36"
       xlink:href="#rect36"
       transform="translate(699.99997,699.99997)"
       id="use505"
       style="stroke-width:0;stroke-dasharray:none" />
  </g>
  <circle
     style="fill:none;fill-opacity:0.852123;stroke:#e2e1de;stroke-width:3;stroke-linecap:square;stroke-linejoin:round;stroke-dasharray:3, 6;stroke-dashoffset:0;stroke-opacity:0.35098335;paint-order:stroke fill markers"
     id="path509"
     cx="514.49384"
     cy="507.18573"
     r="295.24933" />
  <path
     id="path26"
     style="fill:none;fill-opacity:1;stroke:#ffffff;stroke-width:3.47113;stroke-linecap:round;stroke-linejoin:round;stroke-opacity:0.654466;paint-order:markers fill stroke"
     inkscape:transform-center-x="-0.060033153"
     inkscape:transform-center-y="0.0049467052"
     d="m 399.46481,192.1446 c -2.69531,0.0466 -5.52542,0.38797 -8.07785,0.88643 -7.50221,1.50658 -14.63341,4.49335 -21.35769,8.09324 -7.16828,3.90668 -13.92616,9.00639 -18.47219,15.88774 -1.4337,2.18449 -2.65768,4.68611 -3.50334,7.04735 -2.10413,5.68949 -2.43412,11.89307 -1.70747,17.87518 1.07453,8.87388 4.23689,17.33194 7.80773,25.47137 4.32818,9.77766 9.46004,19.03396 14.49581,28.45141 8.14211,15.08104 16.38768,30.22861 21.99529,46.4774 4.02418,11.74787 6.56805,24.22635 5.55258,36.68806 -0.76929,10.23521 -4.1591,20.21324 -9.54265,28.93513 -6.28464,10.27633 -15.08615,19.16037 -25.81198,24.76294 -10.47134,5.57785 -22.32168,8.05962 -34.08972,8.76099 -14.5781,0.86283 -29.16184,-0.72304 -43.58437,-2.72992 -13.66158,-1.91171 -27.20384,-4.30587 -40.94394,-5.64594 -8.63045,-0.82112 -17.50871,-1.196 -26.1754,0.0359 -8.26949,1.13275 -16.73636,4.22572 -22.85254,10.19405 -5.69664,5.49723 -9.16329,12.92253 -11.00376,20.53826 -0.74138,2.96821 -1.27218,5.98664 -1.64886,9.022 -0.0675,0.63762 -0.17658,1.54086 -0.24169,2.28232 -0.76617,8.43623 -0.64891,17.13555 2.01862,25.25455 0.26733,0.81907 0.50921,1.48144 0.83997,2.31521 2.14545,5.48232 5.76525,10.36042 10.37745,14.01698 5.60072,4.50305 12.43173,7.17072 19.32838,8.9616 9.22782,2.3268 18.74919,3.16687 28.22432,3.73558 10.84545,0.59568 21.67673,0.71044 32.54151,1.1309 15.06364,0.57528 30.2236,1.56223 44.91781,5.13351 11.10146,2.72384 21.97078,7.09437 31.09961,14.08325 9.09241,6.88189 16.08329,16.33181 20.57547,26.77441 5.0008,11.24174 6.86484,23.90322 4.99869,36.08468 -1.76455,11.99906 -6.61238,23.32262 -12.63361,33.77041 -7.98213,13.82259 -17.95693,26.34115 -27.87759,38.79717 -6.03741,7.54489 -12.15562,15.16763 -17.73206,22.98291 -1.23952,1.74421 -2.44431,3.48949 -3.60503,5.23721 -5.01054,7.58271 -9.52202,15.67061 -11.81739,24.52425 -1.73615,6.84226 -1.82162,14.23638 0.60151,20.92746 2.64213,7.48855 7.82141,13.81018 13.75489,18.9688 2.66898,2.34992 5.60998,4.57574 8.49641,6.51399 6.4175,4.29416 13.41859,7.95538 21.0397,9.51214 0.91359,0.18647 1.73934,0.32097 2.70909,0.45222 6.04644,0.84297 12.29699,-0.046 17.89564,-2.46782 6.21764,-2.63248 11.55756,-6.95776 16.2793,-11.71659 6.74412,-6.9393 12.32484,-14.89676 17.63151,-22.95852 6.72148,-10.34139 12.97143,-20.97955 19.61915,-31.36785 6.91465,-10.80975 14.25955,-21.4214 22.99293,-30.85753 7.7349,-8.3369 16.70675,-15.75378 27.12645,-20.47099 7.40388,-3.40339 15.46427,-5.34202 23.60344,-5.70999 8.67882,-0.40724 17.44358,0.7121 25.7175,3.37402 8.85649,2.88887 16.99885,7.80684 23.84497,14.10684 8.97986,8.22853 15.8619,18.46793 21.58261,29.15214 8.59019,16.06884 14.74968,33.2978 21.50576,50.14592 2.35593,5.89509 4.79923,11.76804 7.47767,17.48499 3.78812,8.03255 8.06666,15.94301 13.84163,22.73961 2.96244,3.45339 6.33975,6.59177 10.21795,8.99449 0.46634,0.28227 1.17239,0.7051 1.75083,1.01186 6.6207,3.69547 14.48382,4.7711 21.94179,3.74231 7.00006,-0.90431 13.71195,-3.32173 20.07281,-6.31346 1.40735,-0.65719 2.95397,-1.44524 4.3804,-2.22068 7.13699,-3.87758 13.88561,-8.91001 18.45437,-15.7266 3.52559,-5.2329 5.45402,-11.47321 5.68772,-17.76729 0.0523,-1.06033 0.0524,-2.37243 0.004,-3.53214 -0.20064,-5.19007 -1.29852,-10.30447 -2.77933,-15.2694 -0.1873,-0.61541 -0.45111,-1.48504 -0.69563,-2.18904 -3.71713,-11.14541 -9.18037,-21.6319 -14.64482,-31.97145 -8.61019,-16.14227 -17.78295,-32.07231 -24.4252,-49.16517 -4.17575,-10.85156 -7.33131,-22.2414 -7.78571,-33.91534 -0.38766,-8.94731 0.97358,-17.98989 4.23392,-26.34415 3.35506,-8.67598 8.54809,-16.60153 14.91508,-23.36388 6.63402,-6.98326 14.85326,-12.43922 23.86788,-15.83355 11.32351,-4.32048 23.55334,-5.66141 35.60484,-5.60409 17.92062,0.11858 35.63929,3.13103 53.31805,5.75295 9.44779,1.40347 18.97103,2.76871 28.53188,3.37378 1.41607,0.0842 3.02242,0.1633 4.51306,0.2025 4.06171,0.11177 8.13248,0.0272 12.1782,-0.36521 1.37884,-0.13642 2.94293,-0.3229 4.38365,-0.55921 7.50027,-1.22832 14.96108,-4.00376 20.67786,-9.14295 2.20895,-1.9635 4.12703,-4.2423 5.76005,-6.70267 0.3207,-0.48916 0.76907,-1.20407 1.11693,-1.79658 3.76795,-6.44454 5.61978,-13.81196 6.61724,-21.15531 0.83467,-6.8742 1.12869,-13.87571 0.0989,-20.74587 -1.05205,-7.16592 -3.73865,-14.25673 -8.60392,-19.71603 -4.18121,-4.79287 -9.71301,-8.24103 -15.60779,-10.53202 -5.50647,-2.19856 -11.31917,-3.52524 -17.16319,-4.45129 -0.62159,-0.0876 -1.4494,-0.22227 -2.09927,-0.31022 -14.19933,-1.96988 -28.43943,-2.01199 -42.73393,-2.49143 -15.58819,-0.48055 -31.26494,-1.12117 -46.59496,-4.20159 -11.67927,-2.36991 -23.23592,-6.26976 -33.16602,-12.99215 -8.57992,-5.7427 -15.66652,-13.63797 -20.59996,-22.69763 -5.29867,-9.58438 -8.57131,-20.38638 -8.78973,-31.37278 -0.30215,-10.91488 2.4228,-21.72504 6.70623,-31.70413 5.24975,-12.2274 12.67059,-23.3721 20.57092,-34.02595 10.09484,-13.59531 21.20955,-26.4053 31.12706,-40.13483 6.00867,-8.38875 11.64497,-17.23143 14.9521,-27.07118 2.28846,-6.95521 3.106,-14.57901 1.19128,-21.72274 -1.99655,-7.61743 -6.7186,-14.25445 -12.38974,-19.60331 -5.41693,-5.15512 -11.6071,-9.47069 -18.18121,-13.01689 -6.92422,-3.64336 -14.69834,-6.12958 -22.59863,-5.7087 -0.80613,0.0411 -1.49804,0.10915 -2.23782,0.19664 -0.81954,0.10354 -1.67629,0.24294 -2.38327,0.38572 -0.95463,0.19139 -1.83212,0.40592 -2.81706,0.68581 -5.93603,1.67962 -11.26145,5.02334 -15.91241,9.01513 -7.27324,6.23157 -13.07206,13.94808 -18.50957,21.77573 -6.12681,8.90771 -11.60956,18.18239 -17.33805,27.36114 -8.56662,13.83867 -17.3752,27.66708 -28.3976,39.71307 -7.96253,8.68783 -17.26517,16.39413 -28.09971,21.21016 -8.96744,4.02901 -18.87033,5.86023 -28.68487,5.51843 -12.09563,-0.33841 -24.23125,-3.61508 -34.43898,-10.21288 -10.4848,-6.63016 -18.74872,-16.23385 -25.3656,-26.62003 -7.8371,-12.31633 -13.62866,-25.78012 -19.07129,-39.28366 -5.38372,-13.35977 -10.26724,-26.94075 -16.48253,-39.94895 -0.78443,-1.62169 -1.54908,-3.1525 -2.36667,-4.71366 -2.74049,-5.18597 -5.76701,-10.2497 -9.44549,-14.83163 -0.22347,-0.26152 -0.65709,-0.80091 -0.96506,-1.16575 -4.57546,-5.45656 -10.33448,-10.12474 -17.12614,-12.47543 -3.90239,-1.3742 -8.0552,-1.992 -12.18799,-1.9162 z" />
  <path
     id="path26-7"
     style="fill:none;fill-opacity:1;stroke:#ffffff;stroke-width:3.47113;stroke-linecap:round;stroke-linejoin:round;stroke-opacity:0.654466;paint-order:markers fill stroke"
     inkscape:transform-center-x="-0.060217723"
     inkscape:transform-center-y="0.0049821933"
     d="m 400.56479,204.67152 c -7.77073,0.27938 -15.15604,3.19726 -21.98447,6.72757 -5.60764,2.91402 -11.04748,6.62203 -14.64039,11.92808 -3.0437,4.62223 -3.7637,10.43743 -2.94921,15.82784 1.07959,8.39307 4.40771,16.27293 7.88593,23.91483 5.53824,11.95299 12.14791,23.36264 18.24988,35.02766 7.76598,14.65659 15.13225,29.67071 19.71592,45.66773 3.73178,13.02005 5.40563,26.81318 3.39158,40.27797 -2.5013,16.97617 -10.87558,32.85654 -22.81141,45.09944 -7.56029,7.7388 -16.69556,13.95956 -26.7592,17.95872 -12.90961,5.23531 -26.9448,7.10178 -40.80484,7.12445 -19.53971,0.0633 -38.85739,-3.26627 -58.1295,-6.09 -5.35961,-0.78141 -10.75371,-1.5261 -16.17027,-2.14055 -3.37854,-0.38979 -6.84343,-0.70355 -10.31882,-0.90306 -1.73161,-0.0969 -3.4095,-0.16091 -5.18273,-0.19387 -6.22308,-0.0392 -12.57658,0.30968 -18.49804,2.38017 -3.60807,1.24373 -6.99015,3.31389 -9.40392,6.30912 -3.22376,3.98881 -5.0015,8.93361 -6.05854,13.90019 -0.12743,0.60419 -0.29682,1.4673 -0.41879,2.17786 -0.8147,4.88049 -1.23817,9.84059 -1.0439,14.78967 0.0271,0.37532 0.0508,1.074 0.0954,1.57332 0.36085,5.23098 1.5619,10.60923 4.73738,14.89206 3.21254,4.30706 8.15018,6.9124 13.13296,8.63424 8.87835,2.96084 18.26637,3.87238 27.55433,4.50965 21.46009,1.30687 43.0536,0.76043 64.43204,3.53248 13.82813,1.80865 27.63729,5.00605 40.2173,11.17316 14.10706,6.7972 26.23711,17.76971 34.07176,31.35959 8.01985,13.54699 12.40624,29.37837 11.64423,45.1581 -0.57192,13.44081 -4.74838,26.5078 -10.70517,38.49206 -8.63354,17.33559 -20.64653,32.65448 -32.6545,47.73988 -4.6211,5.8203 -9.2929,11.63953 -13.7414,17.54386 -4.08285,5.48533 -8.23539,11.1386 -11.64479,17.14634 -0.81359,1.41265 -1.51818,2.75078 -2.25326,4.23289 -0.70829,1.45608 -1.39471,2.95792 -2.0127,4.51777 -1.90279,4.75485 -3.11568,9.99606 -2.21407,15.11458 0.97483,5.23367 4.19756,9.71446 7.86233,13.43841 2.3927,2.43328 5.08129,4.60796 7.79029,6.57918 5.2034,3.6635 10.79557,7.02143 17.01928,8.5925 4.09691,1.01581 8.52881,1.01999 12.48415,-0.56906 5.82087,-2.21768 10.50397,-6.55233 14.65512,-11.07048 1.50875,-1.64675 2.98499,-3.40851 4.31342,-5.10127 1.04912,-1.32883 2.07373,-2.67852 3.02352,-3.99691 7.39942,-10.16261 13.74785,-20.98812 20.42598,-31.64455 9.43833,-15.24034 19.2393,-30.43313 31.63397,-43.4759 9.29474,-9.78387 20.24433,-18.23854 32.78405,-23.41045 11.92251,-4.96393 25.07616,-6.77982 37.91688,-5.58333 13.80355,1.16492 27.39886,5.71971 38.79427,13.66154 10.918,7.48733 19.75675,17.65917 26.86158,28.75645 9.71554,15.12813 16.56473,31.84063 23.13751,48.50779 4.53021,11.4394 8.8931,22.96826 14.27122,34.04571 1.00282,2.0655 2.14551,4.22037 3.19611,6.0966 0.63655,1.11653 1.27746,2.20581 1.92591,3.23357 0.33194,0.54695 0.63316,0.99654 1.01117,1.5794 3.20339,4.75667 6.89242,9.43719 11.93727,12.3427 2.43043,1.41802 5.19887,2.26801 7.95726,2.48983 6.13834,0.55187 12.19733,-1.2312 17.84399,-3.47261 4.85133,-2.00556 9.57261,-4.41061 13.83384,-7.49319 4.01841,-2.95552 7.72924,-6.69375 9.4604,-11.46934 1.82833,-4.9537 1.47156,-10.41044 0.40746,-15.49242 -1.67417,-7.85411 -4.91163,-15.26024 -8.30888,-22.49922 -4.98553,-10.39012 -10.6487,-20.43314 -16.04199,-30.61256 -8.30458,-15.574 -16.29758,-31.49354 -21.09283,-48.55007 -3.11277,-11.13681 -4.75073,-22.78281 -3.82491,-34.34797 1.0973,-13.98334 6.1358,-27.57589 14.13668,-39.07364 8.17668,-11.9451 19.45965,-21.86907 32.69184,-27.842 12.47113,-5.71763 26.23131,-8.12353 39.87909,-8.50064 21.60091,-0.63733 42.96358,3.20899 64.25605,6.28442 5.81477,0.84208 11.69135,1.6431 17.48584,2.21698 2.92834,0.29352 5.84426,0.51974 8.81342,0.65423 0.55464,0.0229 1.28463,0.0484 1.90917,0.0639 7.26968,0.17671 14.75758,-0.15524 21.58537,-2.89602 3.6616,-1.50427 6.93697,-4.0194 9.10956,-7.35206 3.4898,-5.1611 4.93644,-11.37569 5.75902,-17.46704 0.17625,-1.36724 0.2975,-2.57758 0.40072,-3.96263 0.15156,-2.10647 0.25243,-4.08725 0.22779,-6.21162 -0.0821,-5.66429 -0.87225,-11.54361 -3.80747,-16.4952 -2.67965,-4.54813 -7.31776,-7.54634 -12.12865,-9.45723 -7.13089,-2.8442 -14.80716,-3.89471 -22.39442,-4.69743 -5.39168,-0.53011 -10.7124,-0.83115 -16.12836,-1.04969 -19.64519,-0.78796 -39.47045,-0.67217 -58.99748,-3.55339 -13.64351,-2.02201 -27.2264,-5.56131 -39.45936,-12.07073 -11.36695,-5.96923 -21.26365,-14.73344 -28.45744,-25.37599 -7.17363,-10.55255 -12.01735,-22.72013 -13.8562,-35.35693 -1.37257,-9.44735 -0.91294,-19.12901 1.16898,-28.43845 2.98036,-13.56536 9.10573,-26.22531 16.41328,-37.95923 12.33711,-19.8219 28.13089,-37.13703 41.89407,-55.92889 3.11448,-4.28595 6.08455,-8.68379 8.72718,-13.27852 0.15479,-0.27325 0.47723,-0.84656 0.6562,-1.18312 1.22478,-2.23955 2.3474,-4.53681 3.30646,-6.90319 0.10048,-0.28134 0.34617,-0.87175 0.4904,-1.28542 1.6822,-4.57246 2.77848,-9.55798 1.82107,-14.41839 -0.75662,-4.09982 -3.04494,-7.73856 -5.67055,-10.90373 -3.84791,-4.50992 -8.61767,-8.13265 -13.55569,-11.36649 -4.93721,-3.10615 -10.30258,-5.83749 -16.14235,-6.65749 -3.50519,-0.51095 -7.13022,-0.0457 -10.38864,1.34533 -5.39269,2.22743 -9.76936,6.26767 -13.70495,10.473 -5.89501,6.44304 -10.77208,13.72412 -15.52867,21.02337 -11.68667,18.12759 -22.19605,37.18573 -35.8353,54.01646 -8.24007,10.17912 -17.67129,19.5689 -28.81711,26.5486 -7.93111,4.9978 -16.70994,8.68842 -25.90048,10.59078 -11.74227,2.47442 -24.01162,2.23394 -35.70955,-0.3714 -11.26323,-2.50836 -21.98673,-7.47617 -31.07934,-14.59535 -9.86135,-7.62852 -17.84815,-17.42955 -24.39315,-27.98447 -8.40225,-13.52456 -14.63503,-28.24048 -20.50922,-42.99604 -4.93683,-12.39156 -9.56927,-24.92644 -15.35468,-36.95782 -3.28838,-6.73772 -7.02068,-13.37896 -12.14764,-18.90575 -3.34689,-3.5387 -7.59458,-6.48038 -12.4769,-7.30494 -1.41536,-0.26262 -2.8566,-0.3774 -4.29572,-0.35426 z" />
  <path
     id="path26-4"
     style="fill:none;fill-opacity:1;stroke:#ffffff;stroke-width:3.47113;stroke-linecap:round;stroke-linejoin:round;stroke-opacity:0.654466;paint-order:markers fill stroke"
     inkscape:transform-center-x="-0.059933897"
     inkscape:transform-center-y="0.0050526988"
     d="m 397.69476,182.46415 c -10.45551,0.39958 -20.55298,3.83817 -29.8671,8.43614 -9.01076,4.4299 -17.52769,10.31895 -23.71172,18.33114 -6.93277,8.91894 -10.07954,20.54102 -9.08128,31.75344 0.7823,10.77275 4.41048,21.09554 8.72727,30.91478 6.00701,13.6502 13.56013,26.59355 20.44607,39.74907 6.42799,12.1365 12.60145,24.49959 16.79949,37.61081 2.29004,7.20933 3.91569,14.82115 4.23152,22.30339 0.0665,1.66488 0.0617,3.50251 -0.002,5.06094 -0.0693,1.48291 -0.15688,2.79517 -0.33734,4.27517 -1.15695,10.49021 -5.72479,20.43167 -12.25907,28.65314 -0.25334,0.31147 -0.69179,0.86108 -1.02958,1.26084 -5.13292,6.1427 -11.51957,11.29321 -18.81637,14.63486 -1.86423,0.87504 -3.81047,1.65165 -5.68837,2.29973 -6.93588,2.397 -14.24179,3.56894 -21.54971,4.02457 -0.53723,0.0244 -1.34039,0.0706 -1.97963,0.10339 -0.89035,0.0338 -2.01561,0.0815 -2.99702,0.0942 -2.92882,0.064 -5.85946,0.0224 -8.73443,-0.0772 -3.35584,-0.11276 -6.61484,-0.35005 -9.97576,-0.63762 -8.83845,-0.78639 -17.76754,-2.05902 -26.56477,-3.37192 -14.14459,-2.08243 -28.29,-4.44261 -42.59175,-5.11148 -9.99412,-0.4111 -20.18283,0.18535 -29.75305,3.29226 -8.57217,2.84373 -16.50361,8.00456 -21.96799,15.26588 -5.97473,7.74172 -9.28664,17.22617 -10.84869,26.80105 -1.61561,9.64401 -1.92452,19.58031 -0.21816,29.23399 1.62399,8.65132 5.3038,17.06449 11.36458,23.53442 6.26582,6.82377 14.62518,11.43314 23.39993,14.19234 11.82332,3.77578 24.28137,4.83674 36.60735,5.53684 14.46708,0.75053 28.91805,0.75097 43.36801,1.68614 12.2057,0.78871 24.56459,2.23582 36.35256,5.80435 9.8009,3.0187 19.30079,7.74366 26.62378,15.0471 10.59877,10.63314 17.15027,25.70034 17.1576,40.86632 -0.0138,10.40279 -3.21879,20.54216 -7.68881,29.84531 -5.59736,11.56769 -13.04917,22.11277 -20.825,32.29993 -9.28896,12.13514 -19.20508,23.78954 -28.114,36.21439 -6.57906,9.20771 -12.69728,18.94571 -16.24176,29.76532 -2.75276,8.29696 -3.62983,17.32938 -1.73929,25.91148 1.92927,8.78392 6.74846,16.71949 12.86104,23.22886 5.08998,5.39304 10.96617,10.01381 17.21985,13.98247 6.93149,4.33982 14.45409,7.9295 22.51546,9.54223 7.07719,1.46933 14.51593,1.26882 21.45377,-0.80262 7.21041,-2.10091 13.7935,-6.01642 19.46785,-10.89398 8.67807,-7.37942 15.52728,-16.60081 21.89242,-25.97484 8.09558,-12.03949 15.33752,-24.62297 23.22112,-36.79875 4.07278,-6.30696 8.39465,-12.60568 12.97198,-18.46382 7.49506,-9.53437 16.1422,-18.66273 26.80807,-24.76911 3.69785,-2.11886 7.62956,-3.83414 11.71676,-5.04739 0.2369,-0.0619 1.032,-0.29476 1.25689,-0.35726 1.61342,-0.43192 3.24666,-0.78739 4.89217,-1.07322 0.31206,-0.0419 0.97057,-0.15745 1.42113,-0.21815 7.35862,-1.02647 14.90642,-0.65333 22.14878,0.98668 1.30502,0.30046 2.48353,0.61337 3.79431,1.01047 3.41666,1.03248 6.73375,2.3959 9.88097,4.08023 0.62552,0.33473 1.46124,0.80426 2.15217,1.22303 8.72799,5.24895 15.74182,12.91712 21.43108,21.28104 8.11876,11.97058 13.93349,25.29535 19.37391,38.64151 6.09789,15.05055 11.572,30.38523 18.78032,44.95888 4.71693,9.40584 10.38261,18.52675 18.09246,25.78537 6.41576,5.97859 14.42397,10.42036 23.12206,11.89941 9.36483,1.71082 19.05541,0.29764 27.99621,-2.74665 8.26503,-2.78398 16.14906,-6.72064 23.32568,-11.67679 7.31969,-5.20223 13.75395,-11.96253 17.48598,-20.21281 4.03864,-8.83175 4.91763,-18.90058 3.28778,-28.41953 -1.76285,-11.12809 -6.11584,-21.63332 -10.92124,-31.75331 -6.27042,-13.06095 -13.54126,-25.58756 -20.16841,-38.45546 -5.63994,-10.8922 -11.04248,-22.22482 -14.66232,-34.07622 -0.38734,-1.26752 -0.7371,-2.47185 -1.06174,-3.70145 -1.3777,-5.14512 -2.36584,-10.58114 -2.69351,-15.79381 -0.49187,-7.17924 0.26108,-14.47285 2.5485,-21.3112 2.86909,-8.66248 7.89823,-16.55208 14.24955,-23.07794 6.57863,-6.7685 15.00982,-11.64155 24.06755,-14.2376 6.67169,-1.97112 13.61389,-2.88916 20.55041,-3.21468 0.54884,-0.0206 1.36899,-0.0551 1.96221,-0.0686 5.82087,-0.17322 11.64787,0.0393 17.45274,0.48222 21.22471,1.67004 42.25732,6.22341 63.51596,8.14733 10.74543,0.94113 21.70586,1.12503 32.29064,-1.23913 9.41765,-2.06956 18.47313,-6.62348 25.01493,-13.8116 6.59101,-7.15012 10.58336,-16.36066 12.58354,-25.79851 2.05778,-9.52717 2.66385,-19.38882 1.61872,-29.08485 -1.09666,-9.22361 -4.29741,-18.38059 -10.22715,-25.62895 -5.9833,-7.35487 -14.31849,-12.53872 -23.23787,-15.57372 -11.21389,-3.93057 -23.13023,-5.18275 -34.91912,-5.98008 -14.40816,-0.88269 -28.81117,-0.8826 -43.20756,-1.66798 -12.20191,-0.65308 -24.53877,-1.85693 -36.42172,-4.9709 -2.39649,-0.63619 -4.84566,-1.38003 -7.13718,-2.1881 -7.8243,-2.74044 -15.29226,-6.72967 -21.48611,-12.28625 -0.5663,-0.51062 -1.29949,-1.19393 -1.90368,-1.80273 -1.93568,-1.93759 -3.71164,-4.03247 -5.34366,-6.23105 -0.54978,-0.74566 -1.20604,-1.69466 -1.76551,-2.53968 -4.29662,-6.56731 -7.35589,-13.95975 -8.8881,-21.65939 -1.50057,-7.68153 -1.20588,-15.6658 0.6215,-23.26452 0.3875,-1.64244 0.81944,-3.21881 1.30342,-4.78136 3.28166,-10.52953 8.75792,-20.21763 14.81631,-29.37667 10.96341,-16.39403 24.05143,-31.13073 35.80251,-46.9443 7.10233,-9.54393 13.87674,-19.52381 18.17166,-30.68726 2.74196,-7.02135 4.28329,-14.58223 3.87448,-22.13837 -0.28558,-6.44691 -2.1499,-12.77585 -5.19375,-18.45267 -4.15413,-7.82814 -10.39397,-14.35292 -17.31107,-19.8065 -7.12802,-5.65895 -15.04117,-10.42155 -23.6097,-13.54567 -8.24273,-2.90611 -17.28969,-3.95903 -25.87756,-2.03048 -9.21087,1.9956 -17.52939,7.02406 -24.40475,13.36662 -9.11621,8.33048 -16.23356,18.53301 -22.95691,28.81588 -10.734,16.51313 -20.26856,33.84215 -32.25789,49.51274 -2.09851,2.7291 -4.276,5.39816 -6.55031,7.98288 -0.77705,0.87915 -1.7031,1.90065 -2.56041,2.81433 -6.31609,6.74828 -13.64608,12.87354 -21.90362,16.92774 -2.86734,1.40971 -5.85345,2.58145 -8.92698,3.45758 -0.53687,0.14504 -1.3377,0.36583 -1.98352,0.5138 -1.4524,0.35095 -2.91874,0.64131 -4.39435,0.876 -0.30802,0.0441 -0.97525,0.14581 -1.42652,0.2022 -5.67534,0.74281 -11.45145,0.61128 -17.10539,-0.25304 -0.64605,-0.10335 -1.5531,-0.25589 -2.29529,-0.39698 -9.76923,-1.81181 -18.99853,-6.37729 -26.37477,-13.03296 -8.15394,-7.2301 -14.33081,-16.38382 -19.5391,-25.88312 -1.61851,-2.96767 -3.13533,-5.97688 -4.57787,-8.98374 -6.18664,-12.92071 -11.15582,-26.43837 -16.492,-39.75886 -4.64418,-11.5934 -9.44641,-23.20308 -15.95706,-33.89749 -5.02321,-8.18777 -11.26899,-15.85942 -19.36849,-21.17131 -6.38093,-4.21584 -13.85807,-6.75572 -21.49618,-7.22354 -1.63113,-0.11584 -3.26806,-0.13545 -4.90231,-0.087 z" />
  <path
     sodipodi:type="star"
     style="fill:none;fill-opacity:0.852123;stroke:#ffffff;stroke-width:4.1;stroke-linecap:round;stroke-linejoin:round;stroke-dasharray:none;stroke-opacity:0.654466;paint-order:markers fill stroke"
     id="path27"
     inkscape:flatsided="false"
     sodipodi:sides="6"
     sodipodi:cx="445.3165"
     sodipodi:cy="439.24005"
     sodipodi:r1="140.63698"
     sodipodi:r2="67.505753"
     sodipodi:arg1="0.50230238"
     sodipodi:arg2="1.0259012"
     inkscape:rounded="0.46"
     inkscape:randomized="0"
     d="m 568.58149,506.94899 c -19.67428,35.81728 -53.32778,-31.16079 -88.27484,-9.97926 -34.94706,21.18153 8.86049,82.0052 -31.99532,82.87541 -40.85581,0.87021 0.32215,-61.76361 -35.49513,-81.43789 -35.81727,-19.67428 -66.58833,48.67601 -87.76986,13.72895 -21.18153,-34.94707 53.64993,-30.60282 52.77971,-71.45863 -0.87021,-40.85581 -75.44883,-33.32919 -55.77455,-69.14646 19.67428,-35.81727 53.32779,31.16079 88.27485,9.97926 34.94706,-21.18153 -8.86049,-82.00519 31.99531,-82.87541 40.85581,-0.87021 -0.32214,61.76361 35.49513,81.43789 35.81728,19.67428 66.58834,-48.67601 87.76987,-13.72895 21.18153,34.94707 -53.64993,30.60282 -52.77972,71.45863 0.87022,40.85581 75.44883,33.32919 55.77455,69.14646 z"
     transform="matrix(0.69204579,0.52356502,-0.52356502,0.69204579,443.05885,-37.757023)" />
  <path
     id="path27-4"
     style="fill:none;fill-opacity:0.852123;stroke:#ffffff;stroke-width:3.55791;stroke-linecap:round;stroke-linejoin:round;stroke-dasharray:none;stroke-opacity:0.654466;paint-order:markers fill stroke"
     d="m 479.59917,377.98072 c -6.23633,0.21621 -12.20376,2.67529 -17.36415,6.07278 -4.60716,3.16532 -8.28613,7.95966 -9.32431,13.53031 -1.10825,5.49265 0.0817,11.16512 2.09469,16.30523 2.79921,7.31919 6.93254,14.01506 10.26061,21.08933 0.60807,1.25064 1.17147,2.50527 1.68665,3.72655 1.55794,3.79264 2.89897,7.7724 3.07036,11.9013 0.14228,3.37296 -0.81363,6.76455 -2.70945,9.55918 -2.3643,3.60708 -6.16957,6.27167 -10.42929,7.0616 -5.31601,1.1283 -10.80255,0.56113 -16.13845,-0.11957 -8.66108,-1.17601 -17.26995,-3.25767 -26.06115,-3.05256 -5.53287,0.1986 -11.24709,1.7531 -15.45649,5.50043 -4.07029,3.54953 -6.46746,8.68786 -7.38601,13.94742 -0.9128,4.79674 -1.00764,9.8255 0.2349,14.57186 1.41044,5.16537 4.8064,9.81416 9.48583,12.47483 5.46382,3.2537 11.89956,4.196 18.13769,4.68396 4.95587,0.39944 10.04832,0.47109 14.93655,0.77233 4.94226,0.34418 9.94119,0.82596 14.67137,2.37987 3.68748,1.22776 7.2008,3.41042 9.31719,6.74646 2.82115,4.20894 3.70098,9.75548 1.93243,14.55044 -2.00153,6.01629 -5.99727,11.06319 -9.8537,15.99256 -5.19675,6.485 -10.91394,12.7039 -14.63195,20.21089 -2.38228,4.95043 -3.48208,10.73972 -1.97262,16.11522 1.42726,5.28191 5.02699,9.7143 9.28504,13.0311 3.66692,2.88998 7.85722,5.27391 12.44754,6.29089 4.76069,1.04401 9.8994,0.42216 14.18228,-1.9447 5.50794,-2.92766 9.56343,-7.86303 13.081,-12.89196 5.16794,-7.35739 9.32703,-15.45752 15.37957,-22.16751 2.9001,-3.15314 6.41089,-6.05128 10.70056,-6.96584 4.41789,-0.96483 9.25039,-0.0663 12.98197,2.5009 3.89669,2.82524 6.44099,7.07184 8.52915,11.31939 4.59841,9.42897 7.06216,19.80752 12.41926,28.88018 2.88446,4.81638 7.04206,9.14938 12.42323,11.0768 5.0522,1.86044 10.69312,1.46927 15.72164,-0.26775 4.29626,-1.445 8.40441,-3.59823 11.83719,-6.57802 3.98695,-3.53407 6.76499,-8.55054 7.11932,-13.91412 0.51494,-6.06487 -1.44993,-12.00028 -3.91262,-17.45616 -3.87244,-8.7204 -9.22612,-16.77885 -12.17818,-25.90086 -1.30783,-4.18916 -2.04272,-8.82768 -0.52414,-13.06513 1.82298,-5.27413 6.40224,-9.62896 11.93112,-10.736 3.54932,-0.84174 7.23517,-0.85446 10.85491,-0.58318 0.72681,0.0567 1.6945,0.14281 2.51451,0.23276 9.54862,0.98947 18.94282,3.55569 28.59349,3.44515 5.47037,-0.11426 11.13994,-1.48253 15.45403,-4.99532 4.27387,-3.45935 6.87848,-8.63121 7.90027,-13.97153 1.08412,-5.62704 1.23863,-11.62578 -0.80438,-17.06199 -1.86106,-5.16949 -5.99262,-9.35235 -10.953,-11.63128 -5.97552,-2.75256 -12.63139,-3.38418 -19.12253,-3.7291 -5.7455,-0.34762 -11.51179,-0.40809 -17.23672,-1.05064 -1.02451,-0.12174 -2.26037,-0.27847 -3.35995,-0.46778 -4.38865,-0.77797 -8.9167,-2.01821 -12.37879,-4.96604 -3.08605,-2.64951 -5.03408,-6.52776 -5.56335,-10.54036 -0.57072,-4.22449 0.93197,-8.40156 2.89016,-12.07759 3.98856,-7.21285 9.67259,-13.25649 14.71717,-19.71564 3.94097,-5.04783 7.83784,-10.39207 9.53874,-16.66211 1.11062,-4.0614 1.11984,-8.46268 -0.32388,-12.44432 -1.34737,-3.96652 -3.94953,-7.38929 -7.05557,-10.15441 -3.46242,-3.12414 -7.50399,-5.66725 -11.92288,-7.19065 -5.11278,-1.68588 -10.91197,-1.51609 -15.75197,0.94168 -5.51392,2.66382 -9.64737,7.4036 -13.14636,12.30516 -5.19329,7.21329 -9.29629,15.19713 -15.06423,21.99568 -2.97831,3.47295 -6.56845,6.76948 -11.10443,7.95506 -5.86191,1.54903 -12.60147,-0.35363 -16.54114,-5.02867 -4.22618,-4.71899 -6.61147,-10.69117 -8.94316,-16.49145 -2.96562,-7.56217 -5.4365,-15.42366 -9.84923,-22.31024 -3.06775,-4.68242 -7.50814,-8.7487 -13.008,-10.2484 -2.03264,-0.56975 -4.14869,-0.82515 -6.25834,-0.78642 z" />
  <path
     id="path27-7"
     style="fill:none;fill-opacity:0.852123;stroke:#ffffff;stroke-width:3.55791;stroke-linecap:round;stroke-linejoin:round;stroke-dasharray:none;stroke-opacity:0.654466;paint-order:markers fill stroke"
     d="m 479.97543,393.81945 c -3.19478,0.30592 -6.1921,1.75534 -8.73004,3.66558 -0.95541,0.80138 -1.59151,2.03493 -1.37978,3.30189 0.18254,3.27646 1.7077,6.26049 2.99879,9.21336 4.30461,9.12058 9.77902,17.7662 12.62264,27.51494 2.06123,6.93455 2.71154,14.49122 0.59851,21.49596 -3.10525,10.68192 -11.72463,19.70981 -22.45097,22.86201 -7.74759,2.38343 -16.01028,2.11576 -23.96329,1.09371 -6.15036,-0.79286 -12.23358,-2.04481 -18.39665,-2.74709 -1.00195,-0.10078 -2.22179,-0.24973 -3.31365,-0.28823 -2.32534,-0.0683 -4.81859,-0.19276 -6.94382,0.90856 -1.65188,1.20565 -1.92512,3.39892 -2.26862,5.2663 -0.26761,2.07796 -0.44926,4.26912 0.21006,6.29245 0.56255,1.65371 2.3978,2.26794 3.90769,2.74781 1.9231,0.5655 3.94804,0.87 5.87109,1.06609 0.42614,0.0334 1.15718,0.11142 1.70356,0.15353 10.41015,0.8246 21.02144,0.40954 31.19732,3.10692 7.39137,1.9029 14.48933,5.72865 19.34731,11.72238 6.38803,7.76415 9.31119,18.44274 7.14765,28.32611 -1.58519,7.76077 -5.7257,14.70812 -10.39582,20.99742 -4.73261,6.41498 -10.28719,12.20908 -14.63832,18.90603 -1.12102,1.88635 -2.38168,3.91143 -2.30796,6.18622 0.36058,1.80045 1.88136,3.03849 3.20246,4.17691 1.61414,1.24843 3.35366,2.43404 5.32284,3.02977 1.11759,0.31062 2.32558,0.0427 3.22198,-0.68644 2.60351,-1.78144 4.36902,-4.47016 6.22426,-6.96076 5.06331,-7.27489 9.29386,-15.14111 15.03034,-21.93662 4.73854,-5.65758 10.57696,-10.68144 17.61861,-13.17282 10.45498,-3.78403 22.74303,-1.968 31.62153,4.73792 4.99558,3.74891 8.76694,8.8948 11.74979,14.32961 4.13915,7.57068 6.71027,15.84014 9.96604,23.79766 1.24656,2.85748 2.45279,5.78905 4.33341,8.29992 0.87505,1.0697 1.92852,2.30378 3.44303,2.27194 1.84475,0.012 3.6134,-0.69206 5.28564,-1.40639 1.51659,-0.74065 3.05982,-1.55785 4.24569,-2.77803 0.75823,-0.80782 1.00276,-1.94245 0.84267,-3.01639 -0.12494,-1.71033 -0.64086,-3.36191 -1.25761,-4.95247 -0.13093,-0.30177 -0.37612,-0.93978 -0.56417,-1.36781 -3.30518,-7.75612 -7.80512,-14.93906 -11.08588,-22.7078 -3.00219,-7.03154 -5.09728,-14.66943 -4.50902,-22.37621 0.77332,-10.34264 6.75884,-20.0488 15.44873,-25.64598 5.92696,-3.89947 13.09639,-5.44705 20.11095,-5.60883 9.02194,-0.23441 17.89262,1.66856 26.7662,3.00488 2.7069,0.38935 5.43377,0.71159 8.11549,0.7936 2.02592,0.0493 4.20779,-0.008 5.99406,-1.07227 1.39338,-1.14525 1.75848,-3.05095 2.03454,-4.74038 0.047,-0.32783 0.15565,-1.02222 0.20485,-1.49362 0.19727,-1.97907 0.26832,-4.13357 -0.71162,-5.9283 -1.18383,-1.51613 -3.19733,-1.94226 -4.97104,-2.37498 -5.24938,-1.14107 -10.65136,-1.11118 -15.9909,-1.40147 -8.7457,-0.37928 -17.66208,-0.94673 -25.94458,-4.01897 -6.71245,-2.49839 -12.81255,-6.92369 -16.75328,-12.96159 -5.06364,-7.52579 -7.1145,-17.13132 -5.06709,-26.01573 1.70932,-7.86663 5.98986,-14.87548 10.78522,-21.23101 4.4625,-5.94452 9.54673,-11.41434 13.71979,-17.5759 0.42801,-0.65821 0.8342,-1.33016 1.22593,-2.01052 0.1199,-0.21033 0.45097,-0.83822 0.6305,-1.22541 0.50561,-1.22685 1.12732,-2.57134 0.85059,-3.92494 -0.54513,-1.84426 -2.15779,-3.08723 -3.58255,-4.25995 -1.50392,-1.07072 -3.06426,-2.18606 -4.86954,-2.67124 -1.05658,-0.30872 -2.20252,-0.0934 -3.08147,0.56428 -2.39722,1.5495 -4.03856,3.95657 -5.75877,6.17646 -4.05871,5.6548 -7.45074,11.75419 -11.50629,17.41222 -4.50407,6.3521 -9.83162,12.36857 -16.67132,16.25821 -6.31898,3.56057 -13.80503,4.994 -20.98976,3.97277 -7.82626,-1.01648 -15.28549,-4.84954 -20.52221,-10.77745 -5.88526,-6.42507 -9.50394,-14.501 -12.60752,-22.54271 -2.07587,-5.33722 -3.91981,-10.78294 -6.46266,-15.92349 -1.04711,-1.94043 -2.14882,-3.98675 -3.95705,-5.32238 -0.56865,-0.37695 -1.26277,-0.58334 -1.94651,-0.52924 z" />
  <rect
     style="fill:#8942ec;fill-opacity:0.930408;stroke:none;stroke-width:3;stroke-linecap:square;stroke-linejoin:round;stroke-dasharray:3, 6;stroke-dashoffset:0;stroke-opacity:0.583964;paint-order:stroke fill markers"
     id="rect509"
     width="573.37042"
     height="211.86122"
     x="-61.539886"
     y="613.74176"
     ry="105.93061"
     clip-path="url(#clipPath510)"
     transform="translate(1.244347,2.488694)" />
  <path
     id="rect16-8"
     style="fill:none;fill-opacity:1;stroke:#fffbff;stroke-width:4.52305;stroke-linecap:round;stroke-linejoin:round;stroke-opacity:0.58396369;paint-order:markers fill stroke"
     d="m 467.98438,135.66992 c -65.5209,0.0191 -131.04213,0.0415 -196.56279,0.11207 -29.2229,1.08647 -58.07067,11.65887 -80.86757,30.01546 -22.49671,17.96893 -39.26561,43.09429 -46.85717,70.8963 -3.71397,13.31192 -5.2663,27.18139 -5.02194,40.98633 -0.0888,49.95268 -0.0239,99.90547 -0.0367,149.8582 0.0162,107.86894 6.2e-4,215.73825 0.11818,323.60693 0.71884,30.16812 11.78,59.98187 30.92399,83.31068 18.04273,22.12393 43.07268,38.51096 70.65998,45.93207 12.99338,3.53496 26.50204,5.05914 39.95646,4.79714 43.19049,0.14008 86.38126,0.0403 129.57188,0.0604 115.501,-0.025 231.00218,-0.0546 346.50305,-0.12007 32.09761,-0.76423 63.78852,-13.24525 87.72316,-34.65906 21.0479,-18.66746 36.27106,-43.88241 42.65909,-71.30517 2.83297,-11.95794 3.94934,-24.28642 3.69951,-36.56241 0.092,-113.76873 0.0398,-227.5375 0.0232,-341.30625 -0.0155,-43.73104 -0.009,-87.46245 -0.0913,-131.19322 -0.68385,-33.68916 -14.39307,-66.92 -37.65038,-91.30184 -18.17378,-19.19903 -41.9419,-33.0867 -67.67233,-39.23183 -11.98481,-2.92313 -24.36049,-4.0504 -36.68106,-3.84886 -45.97528,-0.12332 -91.95079,-0.0487 -137.92617,-0.0625 -47.49037,0.005 -94.98073,0.0104 -142.47109,0.0156 z" />
  <text
     xml:space="preserve"
     style="font-style:normal;font-variant:normal;font-weight:500;font-stretch:normal;font-size:93.3333px;font-family:Federation;-inkscape-font-specification:'Federation Medium';text-align:center;writing-mode:lr-tb;direction:ltr;text-anchor:middle;fill:#8942ec;fill-opacity:0.930408;stroke:none;stroke-width:3;stroke-linecap:square;stroke-linejoin:round;stroke-dasharray:3, 6;stroke-dashoffset:0;stroke-opacity:0.583964;paint-order:stroke fill markers"
     x="305.93042"
     y="712.65131"
     id="text511"><tspan
       sodipodi:role="line"
       id="tspan511"
       x="305.93042"
       y="712.65131"
       style="font-size:93.3333px;fill:#00b8ec;fill-opacity:0.930408">FOURdst</tspan></text>
  <text
     xml:space="preserve"
     style="font-style:normal;font-variant:normal;font-weight:500;font-stretch:normal;font-size:93.3333px;font-family:Federation;-inkscape-font-specification:'Federation Medium';text-align:center;writing-mode:lr-tb;direction:ltr;text-anchor:middle;fill:#00b8ec;fill-opacity:0.930408;stroke:none;stroke-width:3;stroke-linecap:square;stroke-linejoin:round;stroke-dasharray:3, 6;stroke-dashoffset:0;stroke-opacity:0.583964;paint-order:stroke fill markers"
     x="318.78909"
     y="776.84436"
     id="text512"><tspan
       sodipodi:role="line"
       id="tspan512"
       x="318.78909"
       y="776.84436">Toolbox</tspan></text>
</svg>
